PathFileType	4	(X/Y/Z)	Kaydara	
DataRate	CameraRate	NumFrames	NumMarkers	Units	OrigDataRate	OrigDataStartFrame	OrigNumFrames	
60.00	60.00	4	74	mm	60.00	1077	200	
Frame#	Time	N_lasi			N_rasi			N_rpsi			N_lpsi			N_fneck			N_bneck			N_fhead			N_rhead			N_lhead			N_rshld			N_relbtop			N_relbext			N_relblow			N_rwrext			N_rwrtop			N_rwrlow			N_lshld			N_lelbext			N_lelbtop			N_lwrext			N_lwrtop			N_lwrlow			N_rtopleg			N_ltopleg			N_rkneefr			N_rkneebk			N_rkneeis			N_lkneefr			N_lknssbk			N_lkneeis			N_rankfr			N_rankis			N_rankbk			N_lankfr			N_lankbk			N_lankis			Z_lasi			Z_rasi			Z_rpsi			Z_lpsi			Z_fneck			Z_bneck			Z_fhead			Z_rhead			Z_lhead			Z_rshld			Z_relbtop			Z_relbext			Z_relblow			Z_rwrext			Z_rwrtop			Z_rwrlow			Z_lshld			Z_lelbext			Z_lelblow			Z_lelbtop			Z_lwrext			Z_lwrtop			Z_lwrlow			Z_rtopleg			Z_ltopleg			Z_rkneefr			Z_rkneebk			Z_rkneeis			Z_lkneefr			Z_lknssbk			Z_lkneeis			Z_rankfr			Z_rankis			Z_lankfr			Z_lankbk			Z_lankis			N_lelblow			Z_rankbk			
		X1	Y1	Z1	X2	Y2	Z2	X3	Y3	Z3	X4	Y4	Z4	X5	Y5	Z5	X6	Y6	Z6	X7	Y7	Z7	X8	Y8	Z8	X9	Y9	Z9	X10	Y10	Z10	X11	Y11	Z11	X12	Y12	Z12	X13	Y13	Z13	X14	Y14	Z14	X15	Y15	Z15	X16	Y16	Z16	X17	Y17	Z17	X18	Y18	Z18	X19	Y19	Z19	X20	Y20	Z20	X21	Y21	Z21	X22	Y22	Z22	X23	Y23	Z23	X24	Y24	Z24	X25	Y25	Z25	X26	Y26	Z26	X27	Y27	Z27	X28	Y28	Z28	X29	Y29	Z29	X30	Y30	Z30	X31	Y31	Z31	X32	Y32	Z32	X33	Y33	Z33	X34	Y34	Z34	X35	Y35	Z35	X36	Y36	Z36	X37	Y37	Z37	X38	Y38	Z38	X39	Y39	Z39	X40	Y40	Z40	X41	Y41	Z41	X42	Y42	Z42	X43	Y43	Z43	X44	Y44	Z44	X45	Y45	Z45	X46	Y46	Z46	X47	Y47	Z47	X48	Y48	Z48	X49	Y49	Z49	X50	Y50	Z50	X51	Y51	Z51	X52	Y52	Z52	X53	Y53	Z53	X54	Y54	Z54	X55	Y55	Z55	X56	Y56	Z56	X57	Y57	Z57	X58	Y58	Z58	X59	Y59	Z59	X60	Y60	Z60	X61	Y61	Z61	X62	Y62	Z62	X63	Y63	Z63	X64	Y64	Z64	X65	Y65	Z65	X66	Y66	Z66	X67	Y67	Z67	X68	Y68	Z68	X69	Y69	Z69	X70	Y70	Z70	X71	Y71	Z71	X72	Y72	Z72	X73	Y73	Z73	X74	Y74	Z74	

126	17.933	-1034.38309	997.12212	-687.42760	-1137.64763	1001.87637	-889.82056	-909.93332	1070.63431	-981.77711	-829.32777	1047.95555	-751.60751	-1080.40024	1457.39136	-723.84819	-973.78944	1539.84024	-785.99426	-1116.59065	1648.37509	-592.28962	-1101.58035	1670.13657	-769.80133	-971.06194	1659.25964	-682.78908	-1097.15767	1459.58191	-974.02382	-1052.74597	1182.61192	-1116.09306	-1007.11777	1157.78625	-1051.11290	-1103.08441	1174.65630	-1061.85799	-1141.34888	937.06978	-1137.22946	-1187.39868	950.77164	-1120.78972	-1183.01346	943.36342	-1074.74121	-900.54909	1416.85074	-581.22498	-809.53621	1113.79150	-579.78157	-811.25732	1141.03867	-556.70521	-765.28587	887.18552	-550.63740	-795.84290	882.89803	-507.31247	-837.56287	872.44125	-532.32056	-1006.22971	881.83144	-1052.82646	-936.14670	870.75439	-647.51640	-962.48993	430.77854	-1026.06316	-885.01068	520.89874	-1050.94513	-889.35875	475.45200	-945.46371	-1207.70462	496.89060	-725.96420	-1102.89726	485.53761	-693.32573	-1135.04486	490.45506	-813.77647	-736.19797	221.33608	-1091.49338	-692.87392	249.35610	-1037.28012	-689.79782	261.40034	-1118.26431	-1243.37318	171.08532	-720.43587	-1199.65446	165.90048	-806.51764	-1265.98671	191.37293	-786.24825	55.69772	967.88086	399.56066	283.38013	976.01967	475.86422	190.35299	1037.90451	652.37656	9.42876	1023.30078	586.18248	144.84913	1414.52820	376.72600	137.96972	1496.90903	466.31470	170.92701	1536.56372	241.22944	240.02035	1601.24817	408.48057	109.17889	1605.80246	402.50427	354.59869	1368.14484	539.87232	416.48678	1075.77034	601.30131	353.79875	1059.15771	567.93465	435.72857	1102.42867	523.78643	472.62154	843.89870	507.20295	499.87213	853.81752	465.99106	459.85718	861.78055	442.61547	-62.51196	1386.57455	411.14700	-49.78220	1068.59589	484.55181	-120.37077	1090.14526	430.33962	-119.91514	1071.03790	510.02735	-140.53243	859.98520	424.77936	-136.46898	870.10864	383.84789	-90.91580	868.05450	383.68710	298.96591	883.95805	613.90251	-16.43467	890.67245	450.11593	214.55488	414.90097	631.21201	225.41855	459.76101	710.85358	124.30369	448.40542	644.43573	122.27351	426.29745	298.38194	54.34101	416.95560	350.55386	165.19375	417.90314	398.89553	171.36028	168.68923	723.35915	94.94314	180.10578	746.19278	165.74074	186.76796	243.24202	96.93955	161.86296	269.70842	149.51513	149.44400	300.66957	-877.98645	1113.05550	-594.17019	148.02217	178.98039	794.90250 
127	17.950	-1050.48035	999.51439	-674.50027	-1157.59926	1002.69577	-873.52875	-932.87125	1071.30692	-971.10786	-846.60057	1050.90492	-743.71620	-1097.70981	1459.96017	-710.58121	-990.92125	1541.40366	-773.84598	-1131.18454	1652.24213	-579.83879	-1117.89368	1671.48621	-757.86339	-986.42654	1661.05545	-672.07565	-1115.65811	1462.74124	-961.14311	-1071.42723	1186.07300	-1104.18289	-1024.75586	1161.37283	-1039.28955	-1120.88829	1177.64221	-1049.52492	-1157.76611	939.73938	-1124.95361	-1203.80028	953.04153	-1107.98744	-1198.84262	945.52780	-1061.92429	-918.73001	1417.16660	-569.00169	-833.65639	1112.40921	-571.36452	-835.84137	1138.88321	-547.24598	-789.74907	885.21988	-546.40961	-821.26198	879.56276	-504.03339	-862.50343	869.81285	-530.28145	-1031.80283	880.76126	-1039.69116	-952.17247	873.46970	-635.67383	-1001.47072	429.24637	-1018.55583	-923.60504	519.63207	-1042.84912	-928.82431	471.65356	-937.00996	-1226.23474	497.52724	-715.13634	-1121.55235	488.30200	-681.43196	-1151.92749	492.64854	-801.56029	-765.29099	228.50235	-1086.18004	-724.16977	256.36658	-1030.50430	-720.32700	270.68806	-1111.50070	-1250.99754	169.77858	-715.57121	-1205.21057	167.14373	-800.25116	-1273.10997	189.84404	-781.11786	58.38530	965.13702	384.35089	286.92734	974.23676	460.28847	194.25512	1036.05370	636.97716	13.26386	1020.08247	571.83769	143.87607	1411.78711	361.04973	137.40405	1494.31931	450.59772	167.81395	1534.23828	225.12112	238.25106	1599.37393	391.92863	107.11875	1603.04749	386.27499	355.21832	1367.05597	523.10802	417.77760	1074.75990	585.93010	355.55084	1058.07617	551.84582	437.06089	1101.69655	508.34072	473.70644	843.65280	490.16808	501.21010	853.66844	448.97381	461.06422	861.72745	425.79453	-62.74179	1382.05688	397.04842	-46.93347	1063.77487	469.34620	-117.83581	1084.78432	415.02213	-117.17117	1065.98099	495.07423	-137.30258	854.29184	410.95379	-133.69287	864.41528	370.12756	-87.90216	862.33261	369.66351	302.71328	882.66068	599.69868	-12.04014	889.17671	433.93898	219.23244	414.09538	621.22730	230.79269	460.08034	700.06546	129.32283	448.44887	633.82153	129.34280	422.99328	280.41468	60.25881	415.13561	330.94055	170.89575	417.48096	381.70517	173.85059	169.61359	719.40010	97.34560	182.87041	742.17041	172.80214	180.31986	235.39600	103.80903	156.46299	262.75463	156.83479	144.40465	291.32608	-901.64268	1112.44652	-586.79523	150.57619	182.03478	791.30409 
128	17.967	-1065.70984	1001.74667	-660.47745	-1176.77429	1003.43910	-857.03148	-954.50325	1071.56067	-960.26482	-862.89963	1052.14661	-735.50446	-1114.56894	1462.32513	-697.62451	-1007.52258	1542.74658	-762.47200	-1144.96399	1656.60385	-568.19252	-1133.66089	1672.66235	-746.88904	-1001.34842	1662.66479	-662.47147	-1134.45190	1465.51605	-948.62984	-1089.23569	1189.35486	-1092.73338	-1042.67502	1165.09567	-1027.45979	-1138.51280	1180.46844	-1037.69814	-1174.36981	942.22939	-1112.18216	-1220.32433	955.17517	-1094.66896	-1214.61830	947.64313	-1048.54187	-936.44409	1418.19016	-557.32933	-857.36671	1111.96899	-563.09818	-860.18616	1137.54257	-537.49092	-815.61523	884.00871	-540.31448	-848.70842	877.22054	-499.76360	-888.88016	868.19679	-527.72659	-1056.96312	879.80118	-1026.08337	-966.69342	874.70238	-626.41529	-1040.54718	428.80310	-1008.99223	-961.96976	518.85139	-1033.63785	-967.42348	469.52290	-924.45877	-1242.55005	497.17484	-705.46593	-1138.16177	489.71039	-670.70168	-1166.95900	494.12315	-790.77705	-796.36177	236.16272	-1080.02808	-757.25998	263.66274	-1023.01659	-752.94449	280.34332	-1104.38995	-1257.34230	168.49144	-711.01456	-1209.91600	167.94119	-794.82178	-1279.02672	188.09637	-776.86722	61.64092	962.84424	367.84958	290.33020	973.02895	444.17839	197.20503	1034.32785	621.21315	16.58330	1017.07230	556.14281	142.55670	1409.68109	344.84257	136.27927	1492.11197	434.59915	164.11341	1532.37625	208.76596	236.79741	1597.15424	374.20525	104.87332	1600.58685	370.68024	355.41203	1366.48331	505.61325	418.78994	1074.22035	570.46921	356.32587	1057.75726	536.46202	438.05984	1101.39145	492.95422	477.89471	844.77707	467.75059	502.06249	853.69530	432.05513	461.77700	861.92886	409.22947	-63.42918	1378.19748	382.45064	-44.39730	1059.61334	453.21415	-115.87046	1079.99130	399.90398	-114.44474	1061.14906	479.52557	-134.28936	849.38232	396.91650	-130.83460	859.28856	355.94379	-85.27212	857.29012	355.59231	305.60011	881.52679	584.88964	-7.70923	887.82356	416.20892	225.10067	412.93003	609.38168	236.97201	460.40955	687.50168	135.62135	448.42701	620.92754	135.82703	419.33834	263.19878	64.84876	413.73692	312.06928	175.64476	417.14314	364.69296	176.28157	170.54583	715.75859	100.27457	186.09879	737.34062	178.65068	174.72973	229.02262	108.81107	152.73806	255.50648	161.83584	140.01199	284.17248	-924.71870	1112.90657	-580.01766	153.54404	185.89642	786.22543 
129	17.983	-1079.94667	1003.22777	-646.54076	-1194.91608	1003.98323	-840.93422	-974.16542	1071.28105	-949.65912	-878.46275	1052.06230	-726.55426	-1130.70969	1464.73068	-685.30022	-1023.93402	1544.08936	-752.06680	-1158.18123	1661.34430	-556.93520	-1149.27872	1674.23904	-736.43173	-1015.57457	1664.41437	-654.08333	-1153.26698	1467.52304	-936.32225	-1107.23213	1192.22443	-1082.00996	-1062.02820	1167.56882	-1015.20348	-1156.08139	1182.87338	-1026.75102	-1191.32668	944.19052	-1099.24522	-1237.08511	956.84715	-1081.12640	-1230.40909	949.58870	-1034.94926	-953.16879	1420.02792	-546.70368	-880.80917	1112.21474	-554.89563	-884.31351	1136.96281	-527.72621	-842.43614	883.13316	-533.38722	-877.83066	875.76645	-494.51382	-916.36475	867.68867	-524.83654	-1081.54472	879.77592	-1012.42989	-981.69823	875.10582	-615.70259	-1079.14063	429.57867	-997.83447	-1000.50797	519.60415	-1022.24182	-1005.58372	467.98557	-911.80092	-1256.90071	495.62675	-697.12662	-1152.46292	489.13723	-662.42081	-1180.88089	494.14486	-781.97319	-829.41925	244.30386	-1073.77151	-790.93910	271.27270	-1016.07307	-787.38075	290.12611	-1096.59081	-1263.85674	166.59418	-709.36691	-1214.46495	168.21796	-791.96884	-1284.90967	185.89691	-775.92201	65.14481	961.23863	350.26367	293.52879	972.48108	427.30515	199.10656	1032.59270	604.52389	18.79905	1014.87854	538.19111	140.58556	1408.10303	328.45425	134.82729	1490.57983	418.46237	159.86180	1531.24084	192.07144	234.80211	1595.92545	356.01261	102.38683	1599.04663	354.78569	355.05821	1366.39999	487.77252	419.17992	1074.81575	555.34286	357.39735	1057.72583	520.48431	438.84808	1101.50177	477.08664	477.52460	844.90837	451.79466	502.23206	854.07257	415.53631	462.17697	862.48276	392.47520	-64.70543	1374.72610	367.67834	-42.19632	1056.02531	436.23882	-114.04988	1075.84770	384.36779	-112.01574	1057.13135	464.19514	-131.32173	845.25520	382.77431	-128.19625	854.66080	341.71158	-82.55202	852.99095	341.14746	308.02616	880.49637	568.63018	-3.88363	886.91658	397.29073	232.13734	411.65447	595.15553	244.23040	460.85854	672.56203	142.70681	448.24612	607.04937	140.48643	415.97210	247.37835	68.13421	412.59865	295.10702	177.41680	415.44827	350.41939	179.64998	172.16377	710.43472	104.09273	190.01066	731.13022	182.13118	171.55375	219.33529	111.43089	150.99392	244.03816	164.33172	137.37289	274.26933	-947.47604	1113.97781	-573.37727	157.17963	190.63383	780.33447 
